<svg width="40" height="27" viewBox="0 0 40 27" fill="none" xmlns="http://www.w3.org/2000/svg">
<path d="M11.9631 25.9156V25.2908H12.3276C13.2224 25.2908 13.852 25.225 14.1834 25.0606C14.5479 24.929 14.7136 24.6659 14.7136 24.3371C14.7136 24.1069 14.5479 23.778 14.2497 23.3834C13.9514 22.9887 13.4212 22.4296 12.659 21.6732L7.22426 16.214L5.86557 17.4308V20.9168C5.86557 21.9363 5.89871 22.7256 5.93185 23.3176C5.96499 23.9095 6.0644 24.3371 6.2301 24.6331C6.39579 24.929 6.62777 25.0935 6.95915 25.1593C7.29054 25.225 7.72135 25.2579 8.31785 25.2579H8.68237V25.8828H0V25.2579H0.596499C1.193 25.2579 1.6238 25.225 1.95519 25.1593C2.28658 25.0935 2.51855 24.929 2.68425 24.6331C2.84994 24.3371 2.94936 23.9095 2.98249 23.3176C3.01563 22.7256 3.04877 21.9363 3.04877 20.9168V11.5441C3.04877 10.9193 3.04877 10.3931 3.04877 9.99842C3.04877 9.60378 3.01563 9.27491 3.01563 9.0447C2.98249 8.78161 2.94936 8.61718 2.91622 8.45274C2.88308 8.32119 2.8168 8.18965 2.71738 8.0581C2.65111 7.92655 2.55169 7.82789 2.45227 7.72923C2.35286 7.66346 2.2203 7.59768 2.08775 7.53191C1.92205 7.49902 1.72322 7.46614 1.49125 7.43325C1.22614 7.40036 0.894748 7.40036 0.497082 7.40036H0.265111V6.77551H8.81493V7.40036H8.4504C8.05273 7.40036 7.72135 7.40036 7.45624 7.43325C7.19113 7.46614 6.99229 7.49902 6.8266 7.53191C6.6609 7.5648 6.52835 7.63057 6.42893 7.72923C6.32952 7.795 6.2301 7.92655 6.16382 8.0581C6.09754 8.18965 6.03127 8.32119 5.96499 8.48563C5.93185 8.61718 5.89871 8.8145 5.86557 9.07759C5.83243 9.3078 5.83243 9.63667 5.83243 10.0313C5.83243 10.426 5.83243 10.9521 5.83243 11.577V16.51L11.7311 11.2481C12.4933 10.5575 13.0567 10.0313 13.3218 9.63667C13.6201 9.27491 13.7526 8.91316 13.7526 8.65006C13.7526 8.25542 13.5869 7.95944 13.2555 7.76212C12.9241 7.5648 12.4271 7.46614 11.698 7.40036V6.77551H18.9554V7.40036C18.1932 7.43325 17.4642 7.63057 16.702 7.99233C15.9729 8.38697 15.1444 8.97893 14.2166 9.8011L12.7584 11.2481L9.24573 14.471L16.47 21.739L18.0275 23.2847C18.4252 23.6793 18.7897 24.0082 19.1211 24.2713C19.4194 24.5344 19.7507 24.7317 20.049 24.8633C20.3472 25.0277 20.6455 25.1264 20.9769 25.1921C21.2751 25.2579 21.6397 25.2908 22.0042 25.2908V25.9156H11.9631Z" fill="#231F20"/>
<path d="M38.9687 25.422C38.803 24.6656 38.5047 24.0079 38.0739 23.383C37.2123 24.3696 36.2182 25.0931 35.1577 25.5535C34.0641 26.014 32.838 26.2442 31.4462 26.2442C30.0875 26.2442 28.8282 26.014 27.6683 25.5535C26.5085 25.0931 25.5474 24.4354 24.719 23.6132C23.8905 22.7582 23.2609 21.7716 22.7638 20.6205C22.2667 19.4695 22.0679 18.1869 22.0679 16.8385C22.0679 15.2928 22.2998 13.8787 22.7638 12.629C23.2277 11.3464 23.8574 10.2612 24.6858 9.34033C25.5143 8.4195 26.4753 7.69599 27.6352 7.20269C28.7951 6.6765 30.0212 6.44629 31.413 6.44629C32.2746 6.44629 33.07 6.54495 33.799 6.70938C34.4949 6.87382 35.224 7.1698 35.9199 7.56444C36.2182 7.72888 36.4501 7.89331 36.649 7.99197C36.8478 8.09063 37.0466 8.22218 37.2123 8.35373C37.378 8.48527 37.5437 8.61682 37.6763 8.74837C37.8088 8.87991 37.9745 9.07724 38.1402 9.27456C38.5379 8.48527 38.803 7.6631 38.8693 6.77516H39.4989L39.6315 14.0431H39.0349C38.6704 11.774 37.9414 10.1296 36.8809 9.04435C36.2844 8.45239 35.5554 7.99197 34.6938 7.6631C33.8322 7.33423 32.9043 7.1698 31.9764 7.1698C29.8555 7.1698 28.2317 8.02486 27.105 9.70209C25.9783 11.3793 25.4149 13.7801 25.4149 16.9043C25.4149 18.1869 25.5806 19.3379 25.912 20.3903C26.2434 21.4427 26.7073 22.3635 27.3038 23.1199C27.9003 23.8763 28.5962 24.4683 29.4578 24.8629C30.2863 25.2904 31.2142 25.4878 32.2415 25.4878C32.6392 25.4878 33.07 25.4549 33.5008 25.3562C33.9316 25.2576 34.3624 25.1589 34.76 24.9945C35.1577 24.8629 35.5554 24.6656 35.8868 24.4683C36.2513 24.271 36.5495 24.0407 36.7815 23.7776C37.378 23.1857 37.9082 22.3635 38.3722 21.2782C38.5047 21.0152 38.571 20.7849 38.6373 20.5876C38.7036 20.3903 38.7699 20.193 38.803 19.9957C38.8361 19.7983 38.9024 19.6339 38.9355 19.4037C38.9687 19.2064 39.0018 18.9762 39.0349 18.6802H39.6315V25.3562H38.9687V25.422Z" fill="#231F20"/>
<path d="M38.074 0.840332C37.6763 1.6625 37.2123 2.35313 36.6821 2.84643C36.417 3.10952 36.1188 3.33973 35.7874 3.53705C35.4228 3.73437 35.0583 3.89881 34.6607 4.06324C34.263 4.19479 33.8322 4.32633 33.4014 4.42499C32.9706 4.52365 32.5398 4.55654 32.1421 4.55654C31.1148 4.55654 30.2201 4.35922 29.3585 3.93169C28.7951 3.63571 28.2649 3.27396 27.8341 2.84643H24.8516C25.6469 3.63571 26.5748 4.22767 27.6684 4.68809C28.8282 5.1485 30.0544 5.37871 31.4462 5.37871C32.838 5.37871 34.0973 5.1485 35.1577 4.68809C36.2513 4.22767 37.2124 3.50416 38.074 2.51756C38.5048 3.10952 38.803 3.80014 38.9687 4.55654H39.5652V0.840332H38.074Z" fill="#231F20"/>
</svg>
