<?xml version="1.0" encoding="UTF-8"?>
<!DOCTYPE svg PUBLIC "-//W3C//DTD SVG 1.1//EN" "http://www.w3.org/Graphics/SVG/1.1/DTD/svg11.dtd">
<svg xmlns="http://www.w3.org/2000/svg">
<symbol id="arrow-left" viewBox="0 0 10 10">
	<path fill="none" d="M6.343 1L2.101 5.243l4.242 4.242"/>
</symbol>
<symbol id="arrow-right" viewBox="0 0 10 10">
	<path fill="none" d="M3.657 1l4.242 4.243-4.242 4.242"/>
</symbol>
<symbol id="avatar-active" viewBox="0 0 411 483">
	<g fill="#6c130e">
		<path d="M203.7 260.2h3.2c29.3-.5 53-10.8 70.5-30.5 38.5-43.4 32.1-117.8 31.4-124.9-2.5-53.3-27.7-78.8-48.5-90.7C244.8 5.2 226.7.4 206.5 0h-1.7c-11.1 0-32.9 1.8-53.8 13.7-21 11.9-46.6 37.4-49.1 91.1-.7 7.1-7.1 81.5 31.4 124.9 17.4 19.7 41.1 30 70.4 30.5zm-75.1-152.9c0-.3.1-.6.1-.8 3.3-71.7 54.2-79.4 76-79.4h1.2c27 .6 72.9 11.6 76 79.4 0 .3 0 .6.1.8.1.7 7.1 68.7-24.7 104.5-12.6 14.2-29.4 21.2-51.5 21.4h-1c-22-.2-38.9-7.2-51.4-21.4-31.7-35.6-24.9-103.9-24.8-104.5z"/>
		<path d="M410.8 383.6v-.3c0-.8-.1-1.6-.1-2.5-.6-19.8-1.9-66.1-45.3-80.9-.3-.1-.7-.2-1-.3-45.1-11.5-82.6-37.5-83-37.8-6.1-4.3-14.5-2.8-18.8 3.3-4.3 6.1-2.8 14.5 3.3 18.8 1.7 1.2 41.5 28.9 91.3 41.7 23.3 8.3 25.9 33.2 26.6 56 0 .9 0 1.7.1 2.5.1 9-.5 22.9-2.1 30.9-16.2 9.2-79.7 41-176.3 41-96.2 0-160.1-31.9-176.4-41.1-1.6-8-2.3-21.9-2.1-30.9 0-.8.1-1.6.1-2.5.7-22.8 3.3-47.7 26.6-56 49.8-12.8 89.6-40.6 91.3-41.7 6.1-4.3 7.6-12.7 3.3-18.8-4.3-6.1-12.7-7.6-18.8-3.3-.4.3-37.7 26.3-83 37.8-.4.1-.7.2-1 .3C2.1 314.7.8 361 .2 380.7c0 .9 0 1.7-.1 2.5v.3c-.1 5.2-.2 31.9 5.1 45.3 1 2.6 2.8 4.8 5.2 6.3 3 2 74.9 47.8 195.2 47.8 120.3 0 192.2-45.9 195.2-47.8 2.3-1.5 4.2-3.7 5.2-6.3 5-13.3 4.9-40 4.8-45.2z"/>
	</g>
</symbol>
<symbol id="avatar" viewBox="0 0 411 483">
	<path d="M203.7 260.2h3.2c29.3-.5 53-10.8 70.5-30.5 38.5-43.4 32.1-117.8 31.4-124.9-2.5-53.3-27.7-78.8-48.5-90.7C244.8 5.2 226.7.4 206.5 0h-1.7c-11.1 0-32.9 1.8-53.8 13.7-21 11.9-46.6 37.4-49.1 91.1-.7 7.1-7.1 81.5 31.4 124.9 17.4 19.7 41.1 30 70.4 30.5zm-75.1-152.9c0-.3.1-.6.1-.8 3.3-71.7 54.2-79.4 76-79.4h1.2c27 .6 72.9 11.6 76 79.4 0 .3 0 .6.1.8.1.7 7.1 68.7-24.7 104.5-12.6 14.2-29.4 21.2-51.5 21.4h-1c-22-.2-38.9-7.2-51.4-21.4-31.7-35.6-24.9-103.9-24.8-104.5z"/>
	<path d="M410.8 383.6v-.3c0-.8-.1-1.6-.1-2.5-.6-19.8-1.9-66.1-45.3-80.9-.3-.1-.7-.2-1-.3-45.1-11.5-82.6-37.5-83-37.8-6.1-4.3-14.5-2.8-18.8 3.3-4.3 6.1-2.8 14.5 3.3 18.8 1.7 1.2 41.5 28.9 91.3 41.7 23.3 8.3 25.9 33.2 26.6 56 0 .9 0 1.7.1 2.5.1 9-.5 22.9-2.1 30.9-16.2 9.2-79.7 41-176.3 41-96.2 0-160.1-31.9-176.4-41.1-1.6-8-2.3-21.9-2.1-30.9 0-.8.1-1.6.1-2.5.7-22.8 3.3-47.7 26.6-56 49.8-12.8 89.6-40.6 91.3-41.7 6.1-4.3 7.6-12.7 3.3-18.8-4.3-6.1-12.7-7.6-18.8-3.3-.4.3-37.7 26.3-83 37.8-.4.1-.7.2-1 .3C2.1 314.7.8 361 .2 380.7c0 .9 0 1.7-.1 2.5v.3c-.1 5.2-.2 31.9 5.1 45.3 1 2.6 2.8 4.8 5.2 6.3 3 2 74.9 47.8 195.2 47.8 120.3 0 192.2-45.9 195.2-47.8 2.3-1.5 4.2-3.7 5.2-6.3 5-13.3 4.9-40 4.8-45.2z"/>
</symbol>
<symbol id="cart" viewBox="0 0 13 16">
	<path stroke-width=".7" d="M3.75 6V4h5.5v2"/>
	<path stroke-width=".7" d="M9.25 4c0-.394-.071-.784-.21-1.148a3.032 3.032 0 0 0-.595-.973 2.747 2.747 0 0 0-.893-.65 2.553 2.553 0 0 0-2.104 0c-.334.15-.637.371-.893.65-.255.278-.457.609-.596.973-.138.364-.209.754-.209 1.148"/>
	<path stroke-width=".7" d="M1.917 4L1 15h11l-.917-11H1.917z"/>
</symbol>
<symbol id="favorite" viewBox="0 0 16 17">
	<path fill="none" stroke="#7E7E7E" d="M8.902 1.307a5.524 5.524 0 0 0-.893.952 5.511 5.511 0 0 0-.893-.952L7.11 1.3 7.1 1.294a3.798 3.798 0 0 0-2.484-.79 4.143 4.143 0 0 0-2.906 1.199A4.085 4.085 0 0 0 .5 4.603c0 1.899.941 3.73 2.261 5.473l.005.006.004.005a50.817 50.817 0 0 0 4.699 5.09l.179.178.352.35.352-.35.18-.178a50.748 50.748 0 0 0 4.698-5.09l.005-.006.004-.006c1.32-1.747 2.261-3.573 2.261-5.472v-.001a4.09 4.09 0 0 0-1.212-2.898l-.353.355.353-.355a4.15 4.15 0 0 0-2.906-1.2 3.804 3.804 0 0 0-2.464.79L8.91 1.3l-.008.007z"/>
</symbol>
<symbol id="play" viewBox="0 0 7 9">
	<path d="M1.243 1.889L5.119 4.5 1.243 7.111V1.89z"/>
</symbol>
<symbol id="search" viewBox="0 0 25 25">
	<g fill="none" transform="translate(-1 -1)">
		<circle cx="11.958" cy="11.958" r="5.608"/>
		<path d="M19 19l-3-3"/>
	</g>
</symbol>
<symbol id="user-active" viewBox="0 0 15 14">
	<path stroke="#6c130e" stroke-miterlimit="10" stroke-width=".7" d="M14 14a5.56 5.56 0 0 0-.496-2.296 5.938 5.938 0 0 0-1.409-1.946 6.555 6.555 0 0 0-2.107-1.3A7.041 7.041 0 0 0 7.5 8c-.851 0-1.697.154-2.488.458a6.5 6.5 0 0 0-2.107 1.3 5.988 5.988 0 0 0-1.409 1.946A5.657 5.657 0 0 0 1 14M7.5 8a3.5 3.5 0 1 0 0-7 3.5 3.5 0 0 0 0 7z"/>
</symbol>
<symbol id="user" viewBox="0 0 15 14">
	<path fill="none" stroke-miterlimit="10" stroke-width=".7" d="M14 14a5.56 5.56 0 0 0-.496-2.296 5.938 5.938 0 0 0-1.409-1.946 6.555 6.555 0 0 0-2.107-1.3A7.041 7.041 0 0 0 7.5 8c-.851 0-1.697.154-2.488.458a6.5 6.5 0 0 0-2.107 1.3 5.988 5.988 0 0 0-1.409 1.946A5.657 5.657 0 0 0 1 14M7.5 8a3.5 3.5 0 1 0 0-7 3.5 3.5 0 0 0 0 7z"/>
</symbol>
</svg>